<svg xmlns="http://www.w3.org/2000/svg" viewBox="0 0 64 64" width="64" height="64">
  <defs>
    <linearGradient id="g" x1="0" y1="0" x2="1" y2="1">
      <stop offset="0" stop-color="#4361ff"/>
      <stop offset="1" stop-color="#212a72"/>
    </linearGradient>
  </defs>
  <rect width="64" height="64" rx="14" fill="url(#g)"/>
  <path fill="#ffc857" d="M32 12c-3.3 0-6 2.5-6 5.6 0 1.6.7 3 1.9 4-2.4 1.3-4.1 3.7-4.5 6.6L22.5 36h19l-.9-7.8c-.4-2.9-2.1-5.3-4.5-6.6 1.2-1 1.9-2.4 1.9-4 0-3.1-2.7-5.6-6-5.6z"/>
  <path fill="#ffc857" d="M22 39h20l2 8H20l2-8zM18 50h28v4H18z"/>
</svg>
